<svg width="32" height="50" viewBox="0 0 32 50" fill="none" xmlns="http://www.w3.org/2000/svg">
<path d="M31.125 31.8125C31.125 32.0208 31.125 32.2708 31.125 32.5625C31.1667 32.8125 31.1458 33.0417 31.0625 33.25C31.1875 33.6667 31.1875 34.0625 31.0625 34.4375C30.9792 34.7708 30.8958 35.1667 30.8125 35.625C30.9792 35.9167 31 36.1875 30.875 36.4375C30.75 36.6875 30.5833 36.8958 30.375 37.0625C30.375 37.3125 30.3125 37.5 30.1875 37.625C30.1042 37.75 30.0208 37.8958 29.9375 38.0625C29.8958 38.6042 29.7917 38.9792 29.625 39.1875C29.4583 39.3542 29.2917 39.5417 29.125 39.75C29.0833 40.0833 29.0417 40.3958 29 40.6875C28.9583 40.9792 28.8542 41.2292 28.6875 41.4375C28.6458 41.6458 28.625 41.8333 28.625 42C28.6667 42.1667 28.625 42.2917 28.5 42.375C28.375 42.4167 28.25 42.4583 28.125 42.5C28.0417 42.5 27.9167 42.4792 27.75 42.4375C27.5417 42.5208 27.375 42.6458 27.25 42.8125C27.125 42.9375 26.9583 43.0625 26.75 43.1875C26.7917 43.6458 26.75 43.8958 26.625 43.9375C26.5417 43.9792 26.4375 44.0417 26.3125 44.125C26.2292 44.2917 26.125 44.4375 26 44.5625C25.875 44.6875 25.8125 44.875 25.8125 45.125C25.6875 45.2083 25.5625 45.3125 25.4375 45.4375C25.3542 45.5625 25.25 45.6667 25.125 45.75C25 46.0833 24.8125 46.3333 24.5625 46.5C24.1042 46.5 23.8542 46.5417 23.8125 46.625C23.7708 46.6667 23.7083 46.7292 23.625 46.8125C23.4167 46.8958 23.1875 46.9792 22.9375 47.0625C22.6875 47.1458 22.4167 47.2083 22.125 47.25C21.7917 47.25 21.5417 47.3125 21.375 47.4375C21.2083 47.6042 20.9583 47.6875 20.625 47.6875C20.4167 47.4375 20.2708 47.3333 20.1875 47.375C20.1458 47.4583 20.0625 47.5417 19.9375 47.625C19.6042 47.625 19.3542 47.7292 19.1875 47.9375C19.0625 48.1458 18.8542 48.2917 18.5625 48.375C18.3542 48.375 18.2083 48.3125 18.125 48.1875C18.0833 48.1042 18.0208 48.0208 17.9375 47.9375C17.4792 48.1875 17.25 48.4167 17.25 48.625C17.2917 48.8333 17.2083 48.9792 17 49.0625C16.7083 49.0208 16.4792 48.9167 16.3125 48.75C16.1458 48.625 15.9583 48.5208 15.75 48.4375C15.5 48.4792 15.2708 48.5417 15.0625 48.625C14.8958 48.75 14.6458 48.7917 14.3125 48.75C13.7292 48.5417 13.375 48.5 13.25 48.625C13.1667 48.75 13.0417 48.7917 12.875 48.75C12.6667 48.75 12.5208 48.6667 12.4375 48.5C12.3542 48.375 12.2083 48.25 12 48.125C11.4583 48.1667 11.125 48.0208 11 47.6875C10.8333 47.6875 10.6875 47.6875 10.5625 47.6875C10.4792 47.7292 10.3958 47.75 10.3125 47.75C9.8125 47.5417 9.375 47.3958 9 47.3125C8.625 47.2708 8.27083 47.1875 7.9375 47.0625C7.72917 46.8542 7.5625 46.5833 7.4375 46.25C7.35417 45.9167 7.27083 45.5833 7.1875 45.25C6.97917 44.875 6.8125 44.75 6.6875 44.875C6.5625 44.9583 6.39583 45 6.1875 45C5.97917 44.9583 5.79167 44.7708 5.625 44.4375C5.20833 44.0625 4.91667 43.6667 4.75 43.25C4.58333 42.8333 4.3125 42.4583 3.9375 42.125C3.6875 41.625 3.35417 41.1875 2.9375 40.8125C2.5625 40.3958 2.16667 39.9792 1.75 39.5625C1.58333 39.2292 1.52083 38.8542 1.5625 38.4375C1.5625 37.9792 1.39583 37.6458 1.0625 37.4375C0.895833 37.1875 1.04167 36.9792 1.5 36.8125C1.91667 36.6042 2.20833 36.3333 2.375 36C2.83333 35.7083 3.1875 35.5833 3.4375 35.625C3.72917 35.6667 4 35.6042 4.25 35.4375C4.375 34.9792 4.5 34.75 4.625 34.75C4.79167 34.7083 4.9375 34.625 5.0625 34.5C5.35417 33.9583 5.54167 33.625 5.625 33.5C5.75 33.3333 5.85417 33.1875 5.9375 33.0625C6.1875 32.7292 6.47917 32.4375 6.8125 32.1875C7.1875 31.7292 7.47917 31.375 7.6875 31.125C7.89583 30.875 8.10417 30.625 8.3125 30.375C8.6875 30.125 9.02083 29.9792 9.3125 29.9375C9.52083 30.1458 9.6875 30.25 9.8125 30.25C9.97917 30.25 10.1667 30.3542 10.375 30.5625C10.2083 31.2292 9.85417 31.625 9.3125 31.75C9.3125 31.9167 9.27083 32.0833 9.1875 32.25C9.14583 32.4167 9.16667 32.5833 9.25 32.75C9.33333 32.875 9.39583 33.0208 9.4375 33.1875C9.47917 33.3125 9.54167 33.4375 9.625 33.5625C9.58333 33.6875 9.54167 33.8125 9.5 33.9375C9.45833 34.0625 9.33333 34.1667 9.125 34.25C9.16667 34.4583 9.125 34.625 9 34.75C8.91667 34.875 8.89583 35.0417 8.9375 35.25C9.02083 35.4583 9.10417 35.6458 9.1875 35.8125C9.3125 35.9792 9.41667 36.1667 9.5 36.375C9.66667 36.9583 9.66667 37.375 9.5 37.625C9.375 37.8333 9.27083 38.0208 9.1875 38.1875C9.27083 38.3542 9.375 38.5 9.5 38.625C9.625 38.7083 9.72917 38.8125 9.8125 38.9375C9.9375 39.1042 10.1667 39.3125 10.5 39.5625C11.2083 39.5208 11.6875 39.6667 11.9375 40C12.1875 40.3333 12.3542 40.7917 12.4375 41.375C12.5208 41.4167 12.625 41.4167 12.75 41.375C12.875 41.2917 13.0417 41.25 13.25 41.25C13.6667 41.2083 14.0625 41.25 14.4375 41.375C15.1042 41.25 15.4792 41.25 15.5625 41.375C15.6875 41.4583 15.8542 41.5208 16.0625 41.5625C16.3125 41.4792 16.4792 41.3542 16.5625 41.1875C16.6875 41.0208 16.8542 40.8958 17.0625 40.8125C17.2708 40.8125 17.4167 40.8333 17.5 40.875C17.5833 40.9167 17.7292 40.9583 17.9375 41C18.1458 41.0417 18.25 41.1042 18.25 41.1875C18.25 41.2708 18.3542 41.3125 18.5625 41.3125C18.7708 41.2708 18.9375 41.2083 19.0625 41.125C19.2292 41.0417 19.4167 40.9792 19.625 40.9375C19.8333 40.8542 20 40.75 20.125 40.625C20.25 40.5 20.4375 40.4375 20.6875 40.4375C20.8125 39.8958 20.8958 39.5 20.9375 39.25C20.9792 39 21.0833 38.8333 21.25 38.75C21.5833 38.4167 21.7917 38.1458 21.875 37.9375C21.9583 37.6875 22.0417 37.4583 22.125 37.25C22.5833 36.875 22.8333 36.5208 22.875 36.1875C22.9583 35.8125 23 35.4583 23 35.125C23.1667 34.7083 23.2917 34.2917 23.375 33.875C23.5 33.4583 23.6042 33.0208 23.6875 32.5625C23.6458 32.1458 23.6667 31.8125 23.75 31.5625C23.5 31.3125 23.4167 30.9583 23.5 30.5C23.1667 30.25 23 30.0208 23 29.8125C23 29.6042 22.9792 29.4375 22.9375 29.3125C22.7292 29.1042 22.5208 28.8958 22.3125 28.6875C22.1458 28.4792 22.0208 28.2292 21.9375 27.9375C21.5208 27.8125 21.2083 27.5625 21 27.1875C20.8333 27.3125 20.625 27.375 20.375 27.375C20.1667 27.3333 20 27.2292 19.875 27.0625C19.5417 26.9792 19.2708 26.8958 19.0625 26.8125C18.8542 26.6875 18.5417 26.6667 18.125 26.75C17.9167 26.5833 17.7917 26.4375 17.75 26.3125C17.75 26.1875 17.7292 26.0208 17.6875 25.8125C17.5208 25.7292 17.2917 25.7083 17 25.75C16.75 25.7917 16.4792 25.7708 16.1875 25.6875C16.0208 25.6042 15.8542 25.5417 15.6875 25.5C15.5625 25.4167 15.3958 25.375 15.1875 25.375C14.9792 25.1667 14.7083 25.0417 14.375 25C14.0833 24.9167 13.8542 24.7708 13.6875 24.5625C13.1875 24.1875 12.7708 23.9583 12.4375 23.875C12.1042 23.7917 11.7708 23.7083 11.4375 23.625C11.1875 23.4583 10.9792 23.3333 10.8125 23.25C10.2708 23.4167 9.9375 23.4792 9.8125 23.4375C9.72917 23.3958 9.60417 23.3542 9.4375 23.3125C9.3125 23.2292 9.20833 23.1667 9.125 23.125C9.04167 23.0417 8.9375 22.9792 8.8125 22.9375C8.60417 22.6458 8.33333 22.3958 8 22.1875C7.70833 21.9375 7.45833 21.6458 7.25 21.3125C7.125 21.2292 7 21.1458 6.875 21.0625C6.79167 20.9375 6.70833 20.8333 6.625 20.75C6.16667 20.625 5.77083 20.4583 5.4375 20.25C5.3125 19.625 5.20833 19.1667 5.125 18.875C5.04167 18.5833 5.02083 18.25 5.0625 17.875C4.9375 17.75 4.79167 17.6458 4.625 17.5625C4.45833 17.4792 4.33333 17.3333 4.25 17.125C4.29167 16.75 4.20833 16.4792 4 16.3125C3.83333 16.1042 3.70833 15.875 3.625 15.625C3.70833 15.5 3.77083 15.375 3.8125 15.25C3.85417 15.0833 3.89583 14.9375 3.9375 14.8125C3.8125 14.4792 3.72917 14.125 3.6875 13.75C3.64583 13.375 3.6875 12.9792 3.8125 12.5625C3.8125 12.1458 3.8125 11.8958 3.8125 11.8125C3.8125 11.7292 3.85417 11.6458 3.9375 11.5625C3.9375 11.3958 3.91667 11.25 3.875 11.125C3.875 10.9583 3.875 10.8125 3.875 10.6875C3.875 10.4792 3.89583 10.2708 3.9375 10.0625C3.97917 9.85417 4.04167 9.64583 4.125 9.4375C4.54167 8.9375 4.79167 8.5 4.875 8.125C5 7.75 5.1875 7.45833 5.4375 7.25C5.64583 6.70833 5.89583 6.25 6.1875 5.875C6.52083 5.45833 6.85417 5.0625 7.1875 4.6875C7.5625 4.52083 7.79167 4.33333 7.875 4.125C8 3.91667 8.1875 3.77083 8.4375 3.6875C8.89583 3.64583 9.14583 3.54167 9.1875 3.375C9.27083 3.16667 9.41667 3 9.625 2.875C9.95833 2.95833 10.2292 2.9375 10.4375 2.8125C10.6458 2.6875 10.9167 2.60417 11.25 2.5625C11.6667 2.3125 12.0417 2 12.375 1.625C12.5833 1.625 12.75 1.66667 12.875 1.75C13.0417 1.79167 13.1875 1.83333 13.3125 1.875C13.6458 1.625 13.8333 1.5 13.875 1.5C13.9583 1.45833 14.0208 1.41667 14.0625 1.375C14.3542 1.16667 14.6042 1.04167 14.8125 1C15.0625 0.958333 15.25 0.9375 15.375 0.9375C15.75 0.979167 15.9792 0.958333 16.0625 0.875C16.1458 0.791667 16.2708 0.75 16.4375 0.75C16.6042 0.791667 16.7083 0.833333 16.75 0.875C16.8333 0.875 16.9792 0.833333 17.1875 0.75C17.6458 0.833333 17.9792 0.916667 18.1875 1C18.3958 1.04167 18.6458 1.04167 18.9375 1C19.0625 1.125 19.25 1.27083 19.5 1.4375C19.6667 1.35417 19.8125 1.27083 19.9375 1.1875C20.1042 1.0625 20.2708 0.9375 20.4375 0.8125C20.6042 0.729167 20.7708 0.625 20.9375 0.5C21.1042 0.375 21.2917 0.416667 21.5 0.625C21.5833 0.791667 21.5833 0.958333 21.5 1.125C21.4167 1.25 21.3958 1.41667 21.4375 1.625C21.7708 1.875 22.0625 2.0625 22.3125 2.1875C22.5625 2.27083 22.7917 2.41667 23 2.625C23.375 2.79167 23.5833 2.9375 23.625 3.0625C23.7083 3.1875 23.7917 3.29167 23.875 3.375C24.0833 3.33333 24.25 3.29167 24.375 3.25C24.5417 3.20833 24.7292 3.16667 24.9375 3.125C25.4375 3.16667 25.6458 3.52083 25.5625 4.1875C25.7708 4.3125 25.9583 4.4375 26.125 4.5625C26.2917 4.64583 26.4583 4.77083 26.625 4.9375C27.375 5.02083 27.8542 5.25 28.0625 5.625C27.9792 6.04167 27.9375 6.27083 27.9375 6.3125C28.3958 6.47917 28.6667 6.60417 28.75 6.6875C28.8333 6.72917 28.9167 6.79167 29 6.875C29 7.16667 28.9583 7.35417 28.875 7.4375C28.8333 7.47917 28.7917 7.5625 28.75 7.6875L29.375 8.1875C29.5833 8.3125 29.7083 8.4375 29.75 8.5625C29.8333 8.64583 29.9583 8.6875 30.125 8.6875C30.3333 9.0625 30.4167 9.29167 30.375 9.375C30.375 9.41667 30.4167 9.47917 30.5 9.5625C29.875 9.85417 29.3542 10.2292 28.9375 10.6875C28.7292 10.9792 28.6042 11.1875 28.5625 11.3125C28.5625 11.3958 28.5208 11.4792 28.4375 11.5625C28.2292 11.8125 28.125 11.9792 28.125 12.0625C28.125 12.1458 28.1458 12.2292 28.1875 12.3125C28.0625 12.5208 27.9375 12.6875 27.8125 12.8125C27.6875 12.9375 27.5833 13.0833 27.5 13.25C27.4167 13.5833 27.3125 13.8333 27.1875 14C26.9792 14.0833 26.7917 14.1875 26.625 14.3125C26.4583 14.4375 26.2708 14.5208 26.0625 14.5625C26.0625 14.7708 26.0625 14.9583 26.0625 15.125C26.1042 15.25 26.0625 15.4167 25.9375 15.625C25.6042 15.8333 25.3542 16.1875 25.1875 16.6875C24.8125 16.9375 24.6042 17.125 24.5625 17.25C24.5625 17.375 24.5208 17.5208 24.4375 17.6875C24.0208 17.9792 23.7083 18.125 23.5 18.125C23.2917 18.0833 23.125 17.9792 23 17.8125C23 17.3542 23 17.0208 23 16.8125C23.2917 16.4792 23.4792 16.1875 23.5625 15.9375C23.3958 15.6042 23.375 15.3333 23.5 15.125C23.5 14.75 23.5417 14.5625 23.625 14.5625C23.7083 14.5208 23.75 14.4792 23.75 14.4375C23.5417 13.9792 23.4167 13.7292 23.375 13.6875C23.3333 13.6458 23.2708 13.6042 23.1875 13.5625C23.0625 13.2292 22.9583 13.0417 22.875 13C22.8333 12.9583 22.8125 12.875 22.8125 12.75C22.7292 12.3333 22.6458 12.0833 22.5625 12C22.5208 11.875 22.5 11.75 22.5 11.625C22.5833 11.2917 22.625 11.0833 22.625 11C22.625 10.875 22.5833 10.7708 22.5 10.6875C22.375 10.6042 22.25 10.5833 22.125 10.625C22.0417 10.6667 21.9375 10.6458 21.8125 10.5625C21.6458 10.3958 21.5625 10.25 21.5625 10.125C21.6042 10 21.5833 9.875 21.5 9.75C21.7083 9.54167 21.8125 9.33333 21.8125 9.125C21.6458 9.04167 21.5 9.02083 21.375 9.0625C21.2917 9.0625 21.2083 9.02083 21.125 8.9375C20.75 8.52083 20.5417 8.20833 20.5 8C20.375 8 20.2708 8.04167 20.1875 8.125C20.1042 8.16667 19.9792 8.16667 19.8125 8.125C19.3958 7.83333 19.1042 7.70833 18.9375 7.75C18.8125 7.75 18.6458 7.75 18.4375 7.75C17.8958 7.625 17.4792 7.5 17.1875 7.375C16.8958 7.25 16.7708 7 16.8125 6.625C16.7292 6.66667 16.6458 6.77083 16.5625 6.9375C16.4792 7.0625 16.3958 7.16667 16.3125 7.25C16.0208 7.29167 15.7292 7.3125 15.4375 7.3125C15.1875 7.3125 14.8958 7.33333 14.5625 7.375C14.3958 7.45833 14.25 7.5625 14.125 7.6875C14 7.77083 13.8542 7.85417 13.6875 7.9375C13.5208 8.10417 13.375 8.29167 13.25 8.5C13.1667 8.66667 13.0417 8.8125 12.875 8.9375C12.5417 9.02083 12.2917 9.10417 12.125 9.1875C12.125 9.35417 12.125 9.52083 12.125 9.6875C12.1667 9.8125 12.125 9.91667 12 10C11.4583 10.2083 11.2083 10.5208 11.25 10.9375C11.3333 11.3542 11.3333 11.7292 11.25 12.0625C11.0833 12.3125 11.0208 12.4792 11.0625 12.5625C11.1042 12.6042 11.1042 12.7083 11.0625 12.875C10.8125 13.1667 10.6875 13.4167 10.6875 13.625C10.7292 13.9167 10.875 14.1458 11.125 14.3125C11.2917 14.3542 11.5 14.4583 11.75 14.625C11.7083 14.8333 11.7083 15.0625 11.75 15.3125C11.7917 15.5208 11.8333 15.75 11.875 16C12.1667 16.1667 12.3542 16.4792 12.4375 16.9375C12.7708 16.9792 12.9792 17.125 13.0625 17.375C13.1458 17.5833 13.2708 17.7708 13.4375 17.9375C14.0208 17.9792 14.4167 18.0625 14.625 18.1875C14.8333 18.3125 15.0625 18.4375 15.3125 18.5625C15.5208 18.5625 15.6667 18.5417 15.75 18.5C15.875 18.4167 16.0208 18.375 16.1875 18.375C16.3958 18.5833 16.625 18.75 16.875 18.875C17.125 18.9583 17.3542 19.1042 17.5625 19.3125C17.9375 19.3958 18.2917 19.4792 18.625 19.5625C19 19.6458 19.3333 19.7708 19.625 19.9375C19.75 19.9375 19.8542 19.9375 19.9375 19.9375C20.0625 19.8958 20.1875 19.8958 20.3125 19.9375C20.5208 19.9792 20.6875 20.0833 20.8125 20.25C20.9375 20.375 21.0625 20.4792 21.1875 20.5625C21.6458 20.5208 21.9375 20.6042 22.0625 20.8125C22.2292 20.9792 22.4167 21.1458 22.625 21.3125C22.7917 21.3542 23.0625 21.375 23.4375 21.375C23.8958 21.6667 24.2083 21.8125 24.375 21.8125C24.5417 21.7708 24.6875 21.7708 24.8125 21.8125C24.9375 21.8958 25.0417 21.9792 25.125 22.0625C25.2083 22.1042 25.2917 22.1667 25.375 22.25C25.8333 22.4167 26.0833 22.5625 26.125 22.6875C26.1667 22.7708 26.2292 22.8542 26.3125 22.9375C26.6458 22.9375 26.9375 23.0625 27.1875 23.3125C27.2292 23.5208 27.2917 23.6875 27.375 23.8125C27.5 23.9375 27.6042 24.0833 27.6875 24.25C27.8958 24.25 28.0417 24.3125 28.125 24.4375C28.25 24.5625 28.3542 24.6667 28.4375 24.75C28.4792 24.9167 28.5208 25.0625 28.5625 25.1875C28.6042 25.3125 28.625 25.4792 28.625 25.6875C28.7083 25.8958 28.8125 26.0833 28.9375 26.25C29.1042 26.375 29.2292 26.5625 29.3125 26.8125C29.4792 27.0208 29.6458 27.1875 29.8125 27.3125C29.9792 27.4375 30.0833 27.6458 30.125 27.9375C30.3333 28.5208 30.5 28.8958 30.625 29.0625C30.7917 29.1875 30.8333 29.4583 30.75 29.875C30.7917 30.2917 30.7917 30.6042 30.75 30.8125C30.75 31.0208 30.7083 31.2292 30.625 31.4375L31.125 31.8125Z" fill="#FFDF3E"/>
</svg>
